<?xml version="1.0" encoding="UTF-8"?>
<svg width="700pt" height="700pt" version="1.1" viewBox="0 0 700 700" xmlns="http://www.w3.org/2000/svg">
 <path d="m350 559.96c146.96 0 269.71-114.82 279.39-261.38 0.31641-4.7773-1.3633-9.5742-4.6914-13.09-3.3242-3.5195-7.9258-5.5312-12.773-5.5312h-35.07c-9.1523 0-16.746 7.0352-17.465 16.172-8.3125 108.69-100.29 193.83-209.39 193.83-115.8 0-210-94.203-210-210s94.203-210 210-210c49.805 0 97.824 17.711 135.55 49.734l-60.426 60.426c-4.9883 4.9883-6.4922 12.512-3.7969 19.074 2.6953 6.5273 9.1016 10.797 16.172 10.797h175c9.6758 0 17.5-7.8594 17.5-17.5v-175c0-7.1055-4.2695-13.477-10.797-16.203-2.1562-0.89062-4.4492-1.293-6.707-1.293-4.5508 0-9.0312 1.7852-12.371 5.1289l-65.051 65.012c-0.28125-0.28125-0.40234-0.64844-0.71875-0.92578-50.922-44.68-116.41-69.25-184.36-69.25-154.39 0-280 125.61-280 280 0 154.39 125.61 280 280 280z"/>
</svg>
